<svg width="100" height="80" viewBox="0 0 100 80" fill="none" xmlns="http://www.w3.org/2000/svg">
<path d="M52.5713 3L96.27 15.3806L52.5713 27.8531L10.2075 15.4256L52.5713 3Z" stroke="black" stroke-width="5.55556" stroke-linecap="round" stroke-linejoin="round"/>
<path d="M10.2749 15.4539C8.5026 15.8331 6.9045 16.7854 5.72751 18.1637C4.55052 19.542 3.86015 21.2695 3.76307 23.0793C3.66599 24.8891 4.16759 26.6806 5.19037 28.1768C6.21316 29.6731 7.70022 30.7909 9.42178 31.3576L52.573 43.9445L96.2699 31.472" stroke="black" stroke-width="5.55556" stroke-linecap="round" stroke-linejoin="round"/>
<path d="M10.2749 31.6763C8.50333 32.0562 6.9061 33.0087 5.7298 34.3867C4.5535 35.7647 3.86355 37.4917 3.76649 39.3009C3.66943 41.1101 4.17064 42.901 5.19275 44.397C6.21486 45.893 7.70102 47.0109 9.42175 47.5781L52.573 60.1669L96.2699 47.6944" stroke="black" stroke-width="5.55556" stroke-linecap="round" stroke-linejoin="round"/>
<path d="M10.2749 48.075C8.50333 48.4548 6.9061 49.4073 5.7298 50.7854C4.5535 52.1634 3.86355 53.8904 3.76649 55.6996C3.66943 57.5088 4.17064 59.2997 5.19275 60.7957C6.21486 62.2917 7.70102 63.4096 9.42175 63.9768L52.573 76.5637L96.2699 64.0931" stroke="black" stroke-width="5.55556" stroke-linecap="round" stroke-linejoin="round"/>
</svg>
