<svg width="23" height="23" viewBox="0 0 23 23" fill="none" xmlns="http://www.w3.org/2000/svg">
<path d="M9.10425 15.8126L15.8126 11.5001L9.10425 7.18758V15.8126ZM11.5001 21.0834C10.1744 21.0834 8.92855 20.8317 7.76258 20.3282C6.59661 19.8254 5.58237 19.1428 4.71987 18.2803C3.85737 17.4178 3.17472 16.4036 2.67191 15.2376C2.16847 14.0716 1.91675 12.8258 1.91675 11.5001C1.91675 10.1744 2.16847 8.92855 2.67191 7.76258C3.17472 6.59661 3.85737 5.58237 4.71987 4.71987C5.58237 3.85737 6.59661 3.1744 7.76258 2.67096C8.92855 2.16815 10.1744 1.91675 11.5001 1.91675C12.8258 1.91675 14.0716 2.16815 15.2376 2.67096C16.4036 3.1744 17.4178 3.85737 18.2803 4.71987C19.1428 5.58237 19.8254 6.59661 20.3282 7.76258C20.8317 8.92855 21.0834 10.1744 21.0834 11.5001C21.0834 12.8258 20.8317 14.0716 20.3282 15.2376C19.8254 16.4036 19.1428 17.4178 18.2803 18.2803C17.4178 19.1428 16.4036 19.8254 15.2376 20.3282C14.0716 20.8317 12.8258 21.0834 11.5001 21.0834Z" fill="#3BAA67"/>
</svg>
