<svg width="85" height="85" viewBox="0 0 85 85" fill="none" xmlns="http://www.w3.org/2000/svg">
<g clip-path="url(#clip0_124_1063)">
<path d="M29.75 21.9583C30.1221 21.6793 30.5455 21.4762 30.996 21.3608C31.4466 21.2454 31.9154 21.2198 32.3758 21.2856C32.8363 21.3514 33.2792 21.5072 33.6794 21.7442C34.0796 21.9811 34.4293 22.2946 34.7083 22.6667C34.9874 23.0387 35.1904 23.4621 35.3058 23.9127C35.4213 24.3632 35.4468 24.8321 35.3811 25.2925C35.3153 25.753 35.1595 26.1959 34.9225 26.5961C34.6855 26.9963 34.3721 27.3459 34 27.625C28.4608 31.7794 25.2875 35.8204 23.4706 39.3479C25.9652 38.7058 28.598 38.8567 31.0029 39.7798C33.4078 40.703 35.4653 42.3524 36.8896 44.4988C38.3138 46.6452 39.034 49.182 38.95 51.7566C38.866 54.3312 37.982 56.8157 36.4209 58.8647C34.8597 60.9137 32.699 62.4255 30.2391 63.1899C27.7791 63.9543 25.1421 63.9333 22.6947 63.1299C20.2472 62.3265 18.1108 60.7806 16.5824 58.707C15.0541 56.6334 14.2097 54.1352 14.1666 51.5596C13.7128 47.2102 14.3305 42.8158 15.9658 38.76C18.0802 33.4263 22.2133 27.6108 29.75 21.9583ZM61.625 21.9583C61.9971 21.6793 62.4205 21.4762 62.871 21.3608C63.3216 21.2454 63.7904 21.2198 64.2509 21.2856C64.7113 21.3514 65.1542 21.5072 65.5544 21.7442C65.9546 21.9811 66.3043 22.2946 66.5833 22.6667C66.8624 23.0387 67.0654 23.4621 67.1808 23.9127C67.2963 24.3632 67.3218 24.8321 67.2561 25.2925C67.1903 25.753 67.0345 26.1959 66.7975 26.5961C66.5605 26.9963 66.2471 27.3459 65.875 27.625C60.3358 31.7794 57.1625 35.8204 55.3456 39.3479C57.8402 38.7058 60.473 38.8567 62.8779 39.7798C65.2828 40.703 67.3403 42.3524 68.7646 44.4988C70.1888 46.6452 70.909 49.182 70.825 51.7566C70.741 54.3312 69.857 56.8157 68.2959 58.8647C66.7347 60.9137 64.574 62.4255 62.1141 63.1899C59.6541 63.9543 57.0172 63.9333 54.5697 63.1299C52.1222 62.3265 49.9858 60.7806 48.4574 58.707C46.9291 56.6334 46.0847 54.1352 46.0416 51.5596C45.5878 47.2102 46.2055 42.8158 47.8408 38.76C49.9587 33.4263 54.0883 27.6108 61.625 21.9583Z" fill="#F4A261"/>
</g>
<defs>
<clipPath id="clip0_124_1063">
<rect width="85" height="85" fill="white"/>
</clipPath>
</defs>
</svg>
