<svg width="340" height="19" viewBox="0 0 340 19" fill="none" xmlns="http://www.w3.org/2000/svg">
<path d="M0.4 0.799999V15H2.82V5.2L6.54 12.04H8.34L12.06 5.2V15H14.48V0.799999H12.22L7.48 9.5L2.76 0.799999H0.4ZM16.655 9.76C16.655 12.88 18.875 15.3 21.975 15.3C25.195 15.3 27.375 12.86 27.375 9.76C27.375 6.62 25.175 4.24 22.055 4.24C18.835 4.24 16.655 6.66 16.655 9.76ZM22.015 6.32C23.955 6.32 25.015 7.98 25.015 9.76C25.015 11.54 23.915 13.22 22.015 13.22C20.115 13.22 19.015 11.5 19.015 9.76C19.015 7.96 20.115 6.32 22.015 6.32ZM29.4002 0.12V15H31.5002L31.6002 13.46C32.3602 14.68 33.6002 15.3 35.0202 15.3C38.1202 15.3 40.0202 12.58 40.0202 9.72C40.0202 6.86 38.1202 4.24 35.1402 4.24C33.7402 4.24 32.4802 4.88 31.7002 6.06V0.12H29.4002ZM34.6602 6.32C36.6002 6.32 37.6602 7.98 37.6602 9.76C37.6602 11.54 36.5602 13.22 34.6602 13.22C32.7602 13.22 31.6602 11.5 31.6602 9.76C31.6602 7.96 32.7602 6.32 34.6602 6.32ZM44.3369 15V4.54H42.0369V15H44.3369ZM41.9769 2.32C42.0969 2.54 42.2569 2.7 42.4769 2.82C42.6969 2.96 42.9169 3.02 43.1769 3.02C43.4369 3.02 43.6569 2.96 43.8769 2.82C44.0969 2.7 44.2569 2.54 44.3969 2.32C44.5169 2.1 44.5769 1.88 44.5769 1.62C44.5769 1.36 44.5169 1.14 44.3969 0.919999C44.2569 0.699999 44.0969 0.539999 43.8769 0.4C43.6569 0.279999 43.4369 0.22 43.1769 0.22C42.9169 0.22 42.6969 0.279999 42.4769 0.4C42.2569 0.539999 42.0969 0.699999 41.9769 0.919999C41.8369 1.14 41.7769 1.36 41.7769 1.62C41.7769 1.88 41.8369 2.1 41.9769 2.32ZM46.822 15H49.122V0.12H46.822V15ZM51.1472 9.76C51.1472 12.92 53.3272 15.3 56.4672 15.3C58.3872 15.3 60.2472 14.42 61.0472 12.62L59.0272 11.84C58.4072 12.82 57.5672 13.3 56.4672 13.3C54.7072 13.3 53.6872 11.94 53.5272 10.32H61.2672V9.64C61.2672 6.58 59.3872 4.24 56.2872 4.24C53.1872 4.24 51.1472 6.84 51.1472 9.76ZM56.2872 6.1C57.8272 6.1 58.6472 7.3 58.8672 8.68H53.5872C53.8672 7.28 54.7872 6.1 56.2872 6.1ZM66.6261 15H69.0461L70.3861 11.48H76.7061L78.0461 15H80.5661L74.8861 0.799999H72.2861L66.6261 15ZM73.5461 3.26L75.9061 9.4H71.1861L73.5461 3.26ZM82.1931 4.54V18.96H84.4931V13.62C85.2731 14.72 86.4731 15.3 87.8131 15.3C90.9131 15.3 92.8131 12.58 92.8131 9.72C92.8131 6.86 90.9131 4.24 87.9331 4.24C86.4331 4.24 85.1731 4.94 84.3931 6.22L84.2931 4.54H82.1931ZM87.4531 6.32C89.3931 6.32 90.4531 7.98 90.4531 9.76C90.4531 11.54 89.3531 13.22 87.4531 13.22C85.5531 13.22 84.4531 11.5 84.4531 9.76C84.4531 7.96 85.5531 6.32 87.4531 6.32ZM94.8298 4.54V18.96H97.1298V13.62C97.9098 14.72 99.1098 15.3 100.45 15.3C103.55 15.3 105.45 12.58 105.45 9.72C105.45 6.86 103.55 4.24 100.57 4.24C99.0698 4.24 97.8098 4.94 97.0298 6.22L96.9298 4.54H94.8298ZM100.09 6.32C102.03 6.32 103.09 7.98 103.09 9.76C103.09 11.54 101.99 13.22 100.09 13.22C98.1898 13.22 97.0898 11.5 97.0898 9.76C97.0898 7.96 98.1898 6.32 100.09 6.32ZM107.467 15H109.767V0.12H107.467V15ZM114.552 15V4.54H112.252V15H114.552ZM112.192 2.32C112.312 2.54 112.472 2.7 112.692 2.82C112.912 2.96 113.132 3.02 113.392 3.02C113.652 3.02 113.872 2.96 114.092 2.82C114.312 2.7 114.472 2.54 114.612 2.32C114.732 2.1 114.792 1.88 114.792 1.62C114.792 1.36 114.732 1.14 114.612 0.919999C114.472 0.699999 114.312 0.539999 114.092 0.4C113.872 0.279999 113.652 0.22 113.392 0.22C113.132 0.22 112.912 0.279999 112.692 0.4C112.472 0.539999 112.312 0.699999 112.192 0.919999C112.052 1.14 111.992 1.36 111.992 1.62C111.992 1.88 112.052 2.1 112.192 2.32ZM116.577 9.84C116.577 12.86 118.717 15.3 121.757 15.3C123.757 15.3 125.797 14.14 126.357 12.14L124.197 11.64C123.757 12.64 122.837 13.22 121.757 13.22C119.877 13.22 118.937 11.5 118.937 9.82C118.937 8.16 119.917 6.32 121.757 6.32C122.837 6.32 123.657 6.96 124.077 7.92L126.257 7.4C125.677 5.36 123.837 4.24 121.797 4.24C118.657 4.24 116.577 6.88 116.577 9.84ZM127.748 12.02C127.748 14.1 129.528 15.3 131.448 15.3C132.728 15.3 134.008 14.78 134.668 13.62L134.748 15H136.848V8.62C136.848 5.98 135.008 4.24 132.448 4.24C130.588 4.24 128.648 5.24 128.128 7.12L130.248 7.6C130.608 6.7 131.448 6.16 132.408 6.16C133.828 6.16 134.568 7.2 134.568 8.52V9.18C133.748 8.84 132.888 8.68 132.008 8.68C129.908 8.68 127.748 9.68 127.748 12.02ZM130.068 11.92C130.068 10.7 131.368 10.3 132.368 10.3C132.748 10.3 133.128 10.34 133.508 10.42C133.868 10.52 134.228 10.64 134.568 10.78V11.02C134.568 12.48 133.388 13.46 131.988 13.46C131.048 13.46 130.068 12.96 130.068 11.92ZM138.09 4.54V6.4H139.93V11.78C139.93 13.94 141.11 15.3 143.31 15.3C143.77 15.3 144.21 15.24 144.63 15.12C145.03 14.98 145.39 14.82 145.69 14.6L145.17 12.86C144.93 13 144.67 13.1 144.39 13.16C144.11 13.24 143.85 13.28 143.61 13.28C142.59 13.28 142.23 12.44 142.23 11.54V6.4H145.27V4.54H142.23V0.999999H139.93V4.54H138.09ZM149.806 15V4.54H147.506V15H149.806ZM147.446 2.32C147.566 2.54 147.726 2.7 147.946 2.82C148.166 2.96 148.386 3.02 148.646 3.02C148.906 3.02 149.126 2.96 149.346 2.82C149.566 2.7 149.726 2.54 149.866 2.32C149.986 2.1 150.046 1.88 150.046 1.62C150.046 1.36 149.986 1.14 149.866 0.919999C149.726 0.699999 149.566 0.539999 149.346 0.4C149.126 0.279999 148.906 0.22 148.646 0.22C148.386 0.22 148.166 0.279999 147.946 0.4C147.726 0.539999 147.566 0.699999 147.446 0.919999C147.306 1.14 147.246 1.36 147.246 1.62C147.246 1.88 147.306 2.1 147.446 2.32ZM151.831 9.76C151.831 12.88 154.051 15.3 157.151 15.3C160.371 15.3 162.551 12.86 162.551 9.76C162.551 6.62 160.351 4.24 157.231 4.24C154.011 4.24 151.831 6.66 151.831 9.76ZM157.191 6.32C159.131 6.32 160.191 7.98 160.191 9.76C160.191 11.54 159.091 13.22 157.191 13.22C155.291 13.22 154.191 11.5 154.191 9.76C154.191 7.96 155.291 6.32 157.191 6.32ZM164.576 4.54V15H166.876V8.92C166.876 7.44 167.896 6.32 169.376 6.32C170.976 6.32 171.536 7.62 171.536 9.04V15H173.836V8.78C173.836 6.32 172.556 4.24 169.956 4.24C168.656 4.24 167.396 4.82 166.756 5.98L166.676 4.54H164.576ZM180.732 0.799999V15H185.912C190.292 15 193.432 12.24 193.432 7.88C193.432 3.34 190.152 0.799999 185.912 0.799999H180.732ZM183.172 12.82V2.98H185.792C188.912 2.98 190.912 4.82 190.912 7.9C190.912 11.06 188.792 12.82 185.792 12.82H183.172ZM195.132 9.76C195.132 12.92 197.312 15.3 200.452 15.3C202.372 15.3 204.232 14.42 205.032 12.62L203.012 11.84C202.392 12.82 201.552 13.3 200.452 13.3C198.692 13.3 197.672 11.94 197.512 10.32H205.252V9.64C205.252 6.58 203.372 4.24 200.272 4.24C197.172 4.24 195.132 6.84 195.132 9.76ZM200.272 6.1C201.812 6.1 202.632 7.3 202.852 8.68H197.572C197.852 7.28 198.772 6.1 200.272 6.1ZM205.979 4.54L209.979 15H212.319L216.319 4.54H213.879L211.179 12.6L208.499 4.54H205.979ZM217.065 9.76C217.065 12.92 219.245 15.3 222.385 15.3C224.305 15.3 226.165 14.42 226.965 12.62L224.945 11.84C224.325 12.82 223.485 13.3 222.385 13.3C220.625 13.3 219.605 11.94 219.445 10.32H227.185V9.64C227.185 6.58 225.305 4.24 222.205 4.24C219.105 4.24 217.065 6.84 217.065 9.76ZM222.205 6.1C223.745 6.1 224.565 7.3 224.785 8.68H219.505C219.785 7.28 220.705 6.1 222.205 6.1ZM229.146 15H231.446V0.12H229.146V15ZM233.471 9.76C233.471 12.88 235.691 15.3 238.791 15.3C242.011 15.3 244.191 12.86 244.191 9.76C244.191 6.62 241.991 4.24 238.871 4.24C235.651 4.24 233.471 6.66 233.471 9.76ZM238.831 6.32C240.771 6.32 241.831 7.98 241.831 9.76C241.831 11.54 240.731 13.22 238.831 13.22C236.931 13.22 235.831 11.5 235.831 9.76C235.831 7.96 236.931 6.32 238.831 6.32ZM246.217 4.54V18.96H248.517V13.62C249.297 14.72 250.497 15.3 251.837 15.3C254.937 15.3 256.837 12.58 256.837 9.72C256.837 6.86 254.937 4.24 251.957 4.24C250.457 4.24 249.197 4.94 248.417 6.22L248.317 4.54H246.217ZM251.477 6.32C253.417 6.32 254.477 7.98 254.477 9.76C254.477 11.54 253.377 13.22 251.477 13.22C249.577 13.22 248.477 11.5 248.477 9.76C248.477 7.96 249.577 6.32 251.477 6.32ZM258.853 4.54V15H261.153V8.9C261.153 7.48 262.073 6.32 263.513 6.32C265.093 6.32 265.613 7.66 265.613 9.02V15H267.913V8.9C267.913 7.48 268.833 6.32 270.273 6.32C271.853 6.32 272.373 7.66 272.373 9.02V15H274.673V8.76C274.673 6.3 273.473 4.24 270.853 4.24C269.413 4.24 267.993 4.98 267.353 6.3C266.733 4.98 265.553 4.24 264.113 4.24C262.853 4.24 261.673 4.84 261.033 5.94L260.953 4.54H258.853ZM276.694 9.76C276.694 12.92 278.874 15.3 282.014 15.3C283.934 15.3 285.794 14.42 286.594 12.62L284.574 11.84C283.954 12.82 283.114 13.3 282.014 13.3C280.254 13.3 279.234 11.94 279.074 10.32H286.814V9.64C286.814 6.58 284.934 4.24 281.834 4.24C278.734 4.24 276.694 6.84 276.694 9.76ZM281.834 6.1C283.374 6.1 284.194 7.3 284.414 8.68H279.134C279.414 7.28 280.334 6.1 281.834 6.1ZM288.775 4.54V15H291.075V8.92C291.075 7.44 292.095 6.32 293.575 6.32C295.175 6.32 295.735 7.62 295.735 9.04V15H298.035V8.78C298.035 6.32 296.755 4.24 294.155 4.24C292.855 4.24 291.595 4.82 290.955 5.98L290.875 4.54H288.775ZM299.32 4.54V6.4H301.16V11.78C301.16 13.94 302.34 15.3 304.54 15.3C305 15.3 305.44 15.24 305.86 15.12C306.26 14.98 306.62 14.82 306.92 14.6L306.4 12.86C306.16 13 305.9 13.1 305.62 13.16C305.34 13.24 305.08 13.28 304.84 13.28C303.82 13.28 303.46 12.44 303.46 11.54V6.4H306.5V4.54H303.46V0.999999H301.16V4.54H299.32ZM312.614 4.7L314.814 5.14C315.154 3.92 315.954 3 317.294 3C317.734 3 318.114 3.1 318.454 3.28C319.174 3.72 319.494 4.5 319.494 5.32C319.494 6.3 319.014 7.08 318.434 7.84C316.774 9.86 314.714 11.58 312.694 13.24V15H322.094V12.9H316.174C317.954 11.42 320.634 9.14 321.534 6.94C321.754 6.4 321.854 5.84 321.854 5.26C321.854 2.64 319.874 0.899999 317.354 0.899999C314.954 0.899999 313.154 2.42 312.614 4.7ZM324.122 13.56C324.122 14.4 324.822 15.08 325.642 15.08C326.502 15.08 327.162 14.4 327.162 13.56C327.162 12.7 326.482 12.04 325.642 12.04C324.802 12.04 324.122 12.72 324.122 13.56ZM328.689 8.16C328.689 11.52 329.989 15.3 333.869 15.3C337.889 15.3 339.129 11.36 339.129 8.04C339.129 4.7 337.869 0.899999 333.989 0.899999C329.989 0.899999 328.689 4.84 328.689 8.16ZM331.069 8.1C331.069 6.28 331.469 3.06 333.909 3.06C336.389 3.06 336.749 6.26 336.749 8.1C336.749 9.94 336.369 13.14 333.909 13.14C331.489 13.14 331.069 9.92 331.069 8.1Z" fill="#3F3F3F"/>
</svg>
