<svg width="53" height="32" viewBox="0 0 53 32" fill="none" xmlns="http://www.w3.org/2000/svg">
<path d="M26.5001 0.90094L0.503418 9.11063L26.5001 20.0566L38.882 14.8432L27.2664 11.8525C27.0272 11.9491 26.7654 11.9995 26.5001 12C26.0277 12 25.5746 11.842 25.2406 11.5607C24.9065 11.2794 24.7188 10.8978 24.7188 10.5C24.7188 10.1022 24.9065 9.72065 25.2406 9.43934C25.5746 9.15804 26.0277 9 26.5001 9L26.2055 9.80644L28.2692 10.3411C28.2695 10.3428 28.2698 10.3446 28.2701 10.3463L31.3154 11.1306L48.6544 15.623V16.7617C48.4146 16.8991 48.2182 17.0837 48.0824 17.2995C47.9466 17.5153 47.8754 17.7558 47.8751 18.0001C47.8754 18.25 47.9498 18.4958 48.0916 18.7153C48.2334 18.9348 48.4381 19.1209 48.687 19.2569C47.8762 21.8374 47.8751 27.6922 47.8751 30C49.6563 30.9745 49.6563 31.0102 51.4376 30C51.4376 27.6924 51.4367 21.8388 50.626 19.2578C50.875 19.1217 51.0797 18.9353 51.2215 18.7157C51.3632 18.496 51.4375 18.25 51.4376 18C51.4376 17.7555 51.3665 17.5147 51.2307 17.2985C51.0949 17.0824 50.8984 16.8975 50.6583 16.76V14.3768L44.0539 12.6656L52.4968 9.11063L26.5001 0.90094ZM11.3175 15.8438L9.85654 23.2256C12.7706 23.5465 16.2563 24.9728 19.4608 26.6594C21.2833 27.6187 22.9903 28.6716 24.3766 29.6932C25.224 30.3175 25.9327 30.9166 26.5001 31.506C27.0675 30.9165 27.7761 30.3175 28.6236 29.6932C30.0099 28.6716 31.7168 27.6187 33.5394 26.6594C36.7438 24.9728 40.2296 23.5465 43.1436 23.2256L41.6825 15.8438H40.9867L26.5001 21.9434L12.0133 15.8438H11.3175Z" fill="#3BAA67"/>
</svg>
